<svg width="706" height="407" viewBox="0 0 706 407" fill="none" xmlns="http://www.w3.org/2000/svg">
<g filter="url(#filter0_b_48_25)">
<path d="M94.4349 172.5C103.435 170.5 107.741 164.826 111.935 160.5C114.164 158.2 117.778 143 116.435 137.575C114.435 129.5 104.456 124 102.435 122C100.413 120 88.8108 114.962 80.9349 112.209L71.4349 108C63.6614 105.247 46.5263 99.0547 42.4349 92.5C40.4349 90.5 28.4349 81 26.9349 63C23.4349 57.5 28.4349 33.5 34.4349 28.5C36.7874 22.9941 44.7299 17.4084 49.4349 14C54.2423 10.5916 62.935 6.00018 74.9349 3.5C80.9349 3 96.4349 3 105.935 4C112.435 4 125.435 5.50018 134.435 5.50018C139.935 7 155.435 0.5 160.241 0L147.935 15L137.935 27.8498L118.935 53C116.435 41.5 109.456 40 104.456 36C97.9349 34 93.6645 33 84.6645 33C76.4349 33 69.9868 38.1739 66.4068 42.5C62.8269 46.695 60.4349 64 70.2574 70C73.4349 73 99.9349 82 104.456 83C113.935 87 127.935 94 132.435 99.5L136.935 103.5L143.935 112C151.435 132.5 152.435 136.5 149.257 154.916C147.968 162.39 136.604 178.416 130.257 181.416C126.257 185.416 110.435 197 104.935 198C96.9349 201 81.2892 201.466 73.6179 201.466C68.2991 201.466 50.8446 199.598 45.9349 197.5C37.9349 196 27.7574 188.416 18.2574 186.916C8.75742 185.416 6.43477 198 0.934846 198.5C-4.56507 199 15.9348 153.5 17.435 153.5C18.9351 153.5 35.4349 166.5 40.2574 168.416C46.2574 172 68.9349 176 70.2574 175.416C83.9349 176 88.4349 173.833 94.4349 172.5Z" fill="white"/>
<path d="M160.241 23.5H261.435L267.935 22.5L247.435 43.5H235.175C232.935 43.5 229.435 43.5 228.435 43.5C226.935 43.5 223.483 43.5 222.435 43.5C221.435 43.5 219.39 43.5 216.935 43.5H212.435V138.5C212.435 143.088 212.435 146 212.435 147C212.435 148 212.435 150 212.435 151.5L211.435 152.5L194.935 166.5H190.435L190.935 161.5L191.435 155C191.435 154 191.435 150.5 191.435 149.5C191.435 148.5 191.435 142.588 191.435 138V43.5H184.435C182.082 43.5 171.435 43.5 170.435 43.5C169.412 43.6311 164.435 43.5 163.435 43.5C162.935 43.5 160.935 43.5 160.241 43.5H154.935H141.935L160.241 23.5Z" fill="white"/>
<path d="M260.935 133L253.935 136L245.435 139.5L253.435 127L258.935 117.5C261.435 113 262.435 111 263.435 109C265.435 105 267.026 101.68 267.435 100.5C267.946 99.189 269.935 95 277.435 79.5L300.435 32.5L310.935 11.5L318.935 29L347.935 90.5C349.435 93.5 354.526 105.689 354.935 107C355.446 108.18 358.646 114.423 358.935 115C359.435 116 361.435 120 361.935 121L365.435 128L375.435 145.5L361.935 139.5L355.935 137L353.935 136C347.435 133.5 344.935 130.5 342.935 125.5C342.435 124.5 338.435 116.5 338.435 116L327.435 93.5L309.935 55L290.435 94L280.435 114.5C278.435 119 277.435 122 275.935 124.5C273.435 128 272.935 128 269.435 129.5C265.935 131 260.935 133 260.935 133ZM290.963 87.8255L309.935 50.5L325.935 87.5L309.935 56.5L290.963 87.8255Z" fill="white"/>
<path d="M433.935 72L432.435 69.5H466.435V89.5V96.5C466.435 98 466.435 103 466.435 104C466.435 105 466.435 103.412 466.435 108V171L461.935 165.807C458.935 162.5 450.435 152.5 446.935 149C442.935 144 442.435 140.5 440.935 137.5C436.935 137.5 425.435 138.062 420.935 137.5C416.435 136.938 408.935 135.5 403.935 133C396.815 129.44 394.935 128 387.935 121C381.435 113.5 374.938 102.997 373.435 96C371.932 89.0027 371.62 84.5733 371.935 78.5C372.557 66.5 374.935 63 374.935 63C377.935 53 387.435 43 389.435 41C392.97 37.4645 397.935 32.5 405.435 29C410.435 26 419.435 23.5 427.935 23.5C433.435 23 442.435 23.5 447.935 24C450.152 24.2016 457.685 26.5 460.935 28C467.435 31 469.435 32 471.935 34.5L459.935 49C455.435 45.5 451.935 44.5 445.935 43C440.935 41.75 430.657 41.1734 427.935 41.5C415.435 43 410.935 47.5 408.935 48.5C407.935 49.5 398.935 55.5 394.935 63C390.935 70.5 391.935 68.5 391.435 70.5C391.435 70.5 390.435 74.7822 390.435 81C390.435 87.2178 394.904 97 395.435 98C395.966 99 400.435 107 409.435 113C412.935 114.5 413.435 116 421.922 117.941C424.435 119 432.435 119 436.435 118C438.935 117.5 440.935 116.5 443.435 115V106.5C443.435 101.912 443.435 97.5 443.435 96.5C443.435 95.5 443.435 89.5 443.435 84.5L433.935 72Z" fill="white"/>
<path d="M584.935 117.5H599.435L574.935 141.5L569.935 139.5H500.435L501.935 134C503.571 133.738 504.128 132.287 504.435 131.5C504.742 130.713 504.435 122.588 504.435 118V87.5C502.435 84 491.435 69.5 491.435 69.5C491.435 69.5 502.435 69.5 504.435 69.5V38.5L491.435 23.5L587.935 23L597.935 20.5L586.935 31.5L571.935 45.5C569.935 45 566.935 44 564.935 43.5C563.225 43.5 558.236 43.5 556.935 43.5C555.935 43.5 544.39 43.5 541.935 43.5H526.477V69.5H543.435C545.89 69.5 550.435 69.5 551.435 69.5C553.935 69.5 558.435 69.5 559.435 69.5C559.935 69.5 560.935 71 562.935 71.5H568.935H592.435L575.435 89.5H560.935H555.435C553.935 89.5 552.935 89.5 551.435 89.5C550.435 89.5 545.435 89.5 544.435 89.5C543.435 89.5 536.89 89.5 534.435 89.5H526.477V117.5H555.935C558.39 117.5 563.935 117.5 564.935 117.5C565.935 117.5 570.935 117.5 572.435 117.5C573.435 117.5 575.935 117.5 579.935 117.5H584.935Z" fill="white"/>
<path d="M266.435 159L237.935 187.995L214.934 213C214.934 215.165 208.935 202.975 204.935 199.5C180.935 199.5 168.435 199.5 164.435 199.5V249.5H200.935H236.935H253.935L233.935 272L218.935 289L209.935 279.5C208.435 279.5 196.435 279.5 184.435 279.5C177.935 279.5 166.435 279.5 164.435 279.5C164.435 291 164.435 297 164.435 304V337C164.435 337 163.435 344 162.935 345.5C162.435 347 161.435 349.5 161.435 349.5L159.935 352.5L157.935 356L154.935 360L151.935 364L150.935 365.5L148.935 368L146.435 371L141.935 376L135.935 383L131.935 387L128.435 390L124.935 393C124.935 393 120.435 396.8 118.935 398C117.435 399.2 113.435 402 111.435 403C109.435 404 105.435 406 104.435 406.5C103.435 407 106.435 403.5 107.435 402C108.435 400.5 109.435 399 109.435 399L117.435 386.5L124.435 370.5L127.435 361C127.435 361 128.435 356 128.935 354C129.435 352 130.435 329.593 130.435 303.5C130.435 294.823 130.435 278.372 130.435 276.5C130.435 274.628 130.435 258 130.435 255V241.5V230.5V204.5L120.435 191.594H114.164C107.664 186.708 131.098 169.677 143.435 166.46L173.703 166.5H237.935C251.011 164 252.935 162.5 266.435 159Z" fill="white"/>
<path d="M313.935 182C320.541 184.932 328.435 193.5 328.435 193.5C335.435 202.5 336.935 207.863 336.935 219.271C334.935 235.5 329.935 240 318.935 250V253.5C323.935 265 344.435 304 353.435 314L360.935 324L348.435 318.491L338.935 312C328.935 306.5 313.935 284.5 301.435 264L288.435 238.584H286.435V256V275.9C286.435 278.5 286.435 292 286.435 297L279.935 292.5C276.435 290 275.935 289.5 272.435 287L265.973 281.5L266.435 205.5C266.435 201 266.435 196.776 266.435 193.5C266.435 187 266.435 181 265.435 177.5H266.435H274.935C274.935 177.5 285.435 178 288.435 178C291.435 178 295.935 178.412 297.435 178.5C298.935 178.588 307.789 179.272 313.935 182ZM286.435 197.5L286.722 224.5V233.454L290.935 235.5H296.935C300.866 237.001 310.935 232 312.935 228.5C312.935 228.5 317.913 222.279 317.435 217.5C316.435 207.5 311.935 204 311.935 204L305.435 199.5C297.004 196.5 293.935 197 286.435 197.5Z" fill="white"/>
<path d="M376.435 194C376.435 198 376.435 198.5 376.435 205.5C376.435 213.5 376.435 211 376.435 223.5C376.435 242 376.435 237.954 376.435 262V285.5V299.5H349.435C350.435 290 355.435 294.5 356.435 285.5C356.435 278 356.435 243.663 356.435 238C356.435 219.5 356.435 188 356.435 178.5L364.435 184.5L376.435 194Z" fill="white"/>
<path d="M512.435 200V180.5L532.435 200.5V208C532.435 211 532.435 211.5 532.435 214.5V229.5C541.435 229.5 552.435 229.5 555.435 229.5C555.435 221 555.435 202 555.435 197.5C555.435 197.5 541.935 179.5 542.935 177.5C543.935 175.5 555.435 182 561.935 185C575.435 185.5 557.935 176.5 560.935 174.5C566.935 177 570.435 180 571.935 181L574.935 181.5H578.435V193.5H574.435V261.221V304C574.435 304 556.435 319.5 553.435 319.5C552.935 319.5 556.435 311.05 556.435 311.05V247.5C551.935 247.5 537.935 247.5 530.435 247.5V296.5C530.435 296.5 495.935 315 507.435 305C514.484 298.871 512.435 285.5 512.435 285.5C512.435 280.5 512.435 272.718 512.435 269.5V256.5V241.5V232.5C512.435 229.5 512.435 227.5 512.435 221.5C512.435 218.5 512.435 204.5 512.435 200Z" fill="white"/>
<path d="M686.935 169C686.935 169 706.935 164.5 704.935 166C702.715 167.665 699.435 170.5 699.435 170.5C695.935 174.5 680.935 186.5 675.435 193.5H671.435H658.273C651.935 193.5 644.935 193.5 642.435 193.5V213V232.5V252.5V267.5V300.5C642.435 304.361 628.435 330 610.435 334.5C614.435 328 619.933 313.638 619.435 312V298C619.435 293 619.435 290.484 619.435 287.5V281.5V268.5V251V227C619.435 202.5 619.435 200.5 619.435 193.5H578.435V177.5C574.435 175 572.935 173 571.435 171.5L570.435 169.5H576.935H604.935C625.435 169.5 630.935 169.5 637.935 169.382L661.435 169.5L686.935 169Z" fill="white"/>
<path d="M454.935 227L451.935 223.5L486.435 222.5V241L486.499 249C486.499 250.5 486.499 255.841 486.499 256.841C486.499 257.841 486.499 257.411 486.499 262V283.5L474.935 292.5C471.935 294.5 465.935 298.5 462.435 300.5C462.435 295 462.012 293 462.435 289.753C458.435 289.753 447.358 290.316 442.858 289.753C438.358 289.191 430.858 287.753 425.858 285.253C418.738 281.694 416.858 280.253 409.858 273.253C403.358 265.753 396.861 255.251 395.358 248.253C393.854 241.256 393.543 236.827 393.858 230.753C394.48 218.753 396.858 215.253 396.858 215.253C399.858 205.253 408.435 194.5 410.435 192.5C413.97 188.964 419.935 184.5 427.435 181C432.435 178 443.935 175.5 452.435 175.5C456.935 175.5 463.435 176.5 468.435 177.5C470.618 177.936 478.843 180.196 481.935 182C487.935 185.5 490.935 188 493.435 190.5L479.935 205C475.435 201.5 469.435 197.5 463.435 196C458.435 194.75 445.108 195.392 442.435 196C431.435 198.5 430.435 201 428.435 202C427.435 203 420.858 207.753 416.858 215.253C412.858 222.753 413.858 220.753 413.358 222.753C413.358 222.753 412.358 227.035 412.358 233.253C412.358 239.471 416.827 249.253 417.358 250.253C417.889 251.253 422.935 258.5 431.935 263C435.435 264.5 436.448 265.312 444.935 267.253C451.935 267.253 455.435 266.5 457.935 265.5C460.435 265 461.935 264 464.435 262.5V258.5C464.435 253.911 464.435 249.5 464.435 248.5C464.435 247.5 464.435 241 464.435 236L454.935 227Z" fill="white"/>
</g>
<defs>
<filter id="filter0_b_48_25" x="-4" y="-4" width="713.076" height="414.549" filterUnits="userSpaceOnUse" color-interpolation-filters="sRGB">
<feFlood flood-opacity="0" result="BackgroundImageFix"/>
<feGaussianBlur in="BackgroundImageFix" stdDeviation="2"/>
<feComposite in2="SourceAlpha" operator="in" result="effect1_backgroundBlur_48_25"/>
<feBlend mode="normal" in="SourceGraphic" in2="effect1_backgroundBlur_48_25" result="shape"/>
</filter>
</defs>
</svg>
